HIERARCHY
ROOT Hips
{
  OFFSET 5.84602e-005 68.8428 3.50346
  CHANNELS 6 Xposition Yposition Zposition Zrotation Xrotation Yrotation
  JOINT Spine
  {
    OFFSET 0 8.597 -4.6522
    CHANNELS 3 Zrotation Xrotation Yrotation
    JOINT Spine1
    {
      OFFSET 0 7.8454 0.4098
      CHANNELS 3 Zrotation Xrotation Yrotation
      JOINT Spine2
      {
        OFFSET 0 9.7078 -2.1609
        CHANNELS 3 Zrotation Xrotation Yrotation
        JOINT Neck
        {
          OFFSET 0 21.8761 -0.4549
          CHANNELS 3 Zrotation Xrotation Yrotation
          JOINT Head
          {
            OFFSET 0 12.3537 3.3602
            CHANNELS 3 Zrotation Xrotation Yrotation
            End Site
            {
              OFFSET 0.0001 18.9506 0.5657
            }
          }
        }
        JOINT LeftShoulder
        {
          OFFSET 2.2086 21.1115 7.2329
          CHANNELS 3 Zrotation Xrotation Yrotation
          JOINT LeftArm
          {
            OFFSET 13.1193 3.0282 -4.8998
            CHANNELS 3 Zrotation Xrotation Yrotation
            JOINT LeftForeArm
            {
              OFFSET 27.4081 -0.0973053 -0.2375
              CHANNELS 3 Zrotation Xrotation Yrotation
              JOINT LeftHand
              {
                OFFSET 22.8641 0.0662994 -0.1369
                CHANNELS 3 Zrotation Xrotation Yrotation
                JOINT LeftHandIndex1
                {
                  OFFSET 8.8614 0.775009 2.4612
                  CHANNELS 3 Zrotation Xrotation Yrotation
                  JOINT LeftHandIndex2
                  {
                    OFFSET 3.3146 -0.808304 0.5841
                    CHANNELS 3 Zrotation Xrotation Yrotation
                    JOINT LeftHandIndex3
                    {
                      OFFSET 2.2628 -0.552002 0.3989
                      CHANNELS 3 Zrotation Xrotation Yrotation
                      End Site
                      {
                        OFFSET 1.6102 -0.4807 0.2612
                      }
                    }
                  }
                }
                JOINT LeftHandMiddle1
                {
                  OFFSET 8.9937 0.895004 0.2143
                  CHANNELS 3 Zrotation Xrotation Yrotation
                  JOINT LeftHandMiddle2
                  {
                    OFFSET 4.0984 0.0113983 -0.0242
                    CHANNELS 3 Zrotation Xrotation Yrotation
                    JOINT LeftHandMiddle3
                    {
                      OFFSET 2.2716 0.00689697 -0.0138001
                      CHANNELS 3 Zrotation Xrotation Yrotation
                      End Site
                      {
                        OFFSET 2.0404 -0.1441 0.0027
                      }
                    }
                  }
                }
                JOINT LeftHandRing1
                {
                  OFFSET 8.5234 0.597198 -2.0164
                  CHANNELS 3 Zrotation Xrotation Yrotation
                  JOINT LeftHandRing2
                  {
                    OFFSET 3.7188 -0.188293 -0.2328
                    CHANNELS 3 Zrotation Xrotation Yrotation
                    JOINT LeftHandRing3
                    {
                      OFFSET 2.1191 -0.106598 -0.1332
                      CHANNELS 3 Zrotation Xrotation Yrotation
                      End Site
                      {
                        OFFSET 1.8737 -0.2304 -0.0886
                      }
                    }
                  }
                }
                JOINT LeftHandPinky1
                {
                  OFFSET 7.9094 -0.601089 -3.4825
                  CHANNELS 3 Zrotation Xrotation Yrotation
                  JOINT LeftHandPinky2
                  {
                    OFFSET 2.2874 -0.477005 -0.6314
                    CHANNELS 3 Zrotation Xrotation Yrotation
                    JOINT LeftHandPinky3
                    {
                      OFFSET 1.6774 -0.349396 -0.4633
                      CHANNELS 3 Zrotation Xrotation Yrotation
                      End Site
                      {
                        OFFSET 1.4888 -0.4091 -0.3416
                      }
                    }
                  }
                }
                JOINT LeftHandThumb1
                {
                  OFFSET 1.833 -1.3875 1.3896
                  CHANNELS 3 Zrotation Xrotation Yrotation
                  JOINT LeftHandThumb2
                  {
                    OFFSET 3.4129 -1.121 2.5732
                    CHANNELS 3 Zrotation Xrotation Yrotation
                    JOINT LeftHandThumb3
                    {
                      OFFSET 2.2474 -0.804199 1.6192
                      CHANNELS 3 Zrotation Xrotation Yrotation
                      End Site
                      {
                        OFFSET 1.6527 -0.5689 1.1317
                      }
                    }
                  }
                }
              }
            }
          }
        }
        JOINT RightShoulder
        {
          OFFSET -2.2086 21.1115 7.2329
          CHANNELS 3 Zrotation Xrotation Yrotation
          JOINT RightArm
          {
            OFFSET -13.1216 3.0287 -4.9007
            CHANNELS 3 Zrotation Xrotation Yrotation
            JOINT RightForeArm
            {
              OFFSET -27.4081 -0.0973053 -0.2375
              CHANNELS 3 Zrotation Xrotation Yrotation
              JOINT RightHand
              {
                OFFSET -22.8641 0.0664063 -0.1369
                CHANNELS 3 Zrotation Xrotation Yrotation
                JOINT RightHandIndex1
                {
                  OFFSET -8.8614 0.774994 2.4612
                  CHANNELS 3 Zrotation Xrotation Yrotation
                  JOINT RightHandIndex2
                  {
                    OFFSET -3.3146 -0.808304 0.5841
                    CHANNELS 3 Zrotation Xrotation Yrotation
                    JOINT RightHandIndex3
                    {
                      OFFSET -2.2628 -0.552002 0.3989
                      CHANNELS 3 Zrotation Xrotation Yrotation
                      End Site
                      {
                        OFFSET -1.6102 -0.4807 0.2612
                      }
                    }
                  }
                }
                JOINT RightHandMiddle1
                {
                  OFFSET -8.9937 0.894989 0.2143
                  CHANNELS 3 Zrotation Xrotation Yrotation
                  JOINT RightHandMiddle2
                  {
                    OFFSET -4.0984 0.0113983 -0.0242
                    CHANNELS 3 Zrotation Xrotation Yrotation
                    JOINT RightHandMiddle3
                    {
                      OFFSET -2.2716 0.00691223 -0.0138001
                      CHANNELS 3 Zrotation Xrotation Yrotation
                      End Site
                      {
                        OFFSET -2.0404 -0.1441 0.0027
                      }
                    }
                  }
                }
                JOINT RightHandRing1
                {
                  OFFSET -8.5234 0.597198 -2.0164
                  CHANNELS 3 Zrotation Xrotation Yrotation
                  JOINT RightHandRing2
                  {
                    OFFSET -3.7188 -0.188309 -0.2328
                    CHANNELS 3 Zrotation Xrotation Yrotation
                    JOINT RightHandRing3
                    {
                      OFFSET -2.1191 -0.106598 -0.1332
                      CHANNELS 3 Zrotation Xrotation Yrotation
                      End Site
                      {
                        OFFSET -1.8737 -0.2304 -0.0886
                      }
                    }
                  }
                }
                JOINT RightHandPinky1
                {
                  OFFSET -7.9094 -0.601105 -3.4825
                  CHANNELS 3 Zrotation Xrotation Yrotation
                  JOINT RightHandPinky2
                  {
                    OFFSET -2.2874 -0.477005 -0.6314
                    CHANNELS 3 Zrotation Xrotation Yrotation
                    JOINT RightHandPinky3
                    {
                      OFFSET -1.6774 -0.349396 -0.4633
                      CHANNELS 3 Zrotation Xrotation Yrotation
                      End Site
                      {
                        OFFSET -1.4888 -0.4091 -0.3416
                      }
                    }
                  }
                }
                JOINT RightHandThumb1
                {
                  OFFSET -1.833 -1.38751 1.3896
                  CHANNELS 3 Zrotation Xrotation Yrotation
                  JOINT RightHandThumb2
                  {
                    OFFSET -3.41299 -1.12099 2.5732
                    CHANNELS 3 Zrotation Xrotation Yrotation
                    JOINT RightHandThumb3
                    {
                      OFFSET -2.24741 -0.804108 1.6192
                      CHANNELS 3 Zrotation Xrotation Yrotation
                      End Site
                      {
                        OFFSET -1.6527 -0.5689 1.1317
                      }
                    }
                  }
                }
              }
            }
          }
        }
      }
    }
  }
  JOINT RightUpLeg
  {
    OFFSET -9.1966 3.8861 -0.7581
    CHANNELS 3 Zrotation Xrotation Yrotation
    JOINT RightLeg
    {
      OFFSET -0.7359 -41.0265 0
      CHANNELS 3 Zrotation Xrotation Yrotation
      JOINT RightFoot
      {
        OFFSET 0 -40.2855 0
        CHANNELS 3 Zrotation Xrotation Yrotation
        JOINT RightToeBase
        {
          OFFSET 0 -5.6122 11.7359
          CHANNELS 3 Zrotation Xrotation Yrotation
          End Site
          {
            OFFSET 0 0 7.8731
          }
        }
      }
    }
  }
  JOINT LeftUpLeg
  {
    OFFSET 9.1965 3.8864 -0.7581
    CHANNELS 3 Zrotation Xrotation Yrotation
    JOINT LeftLeg
    {
      OFFSET 0.7359 -41.0268 0
      CHANNELS 3 Zrotation Xrotation Yrotation
      JOINT LeftFoot
      {
        OFFSET 0 -40.2855 0
        CHANNELS 3 Zrotation Xrotation Yrotation
        JOINT LeftToeBase
        {
          OFFSET 0 -5.6122 11.7359
          CHANNELS 3 Zrotation Xrotation Yrotation
          End Site
          {
            OFFSET 0 0 7.8731
          }
        }
      }
    }
  }
}
MOTION
Frames:	4
Frame Time:	0.0333333
-43.862 2.2268 6.308 -180 -89.9981 -180 -0.671197 8.11503 0.155346 -1.38609 16.2276 0.414184 -1.38609 16.2276 0.414185 -1.53579e-006 17.9984 6.77393e-007 26.2197 -7.20279 3.53157 15.5839 3.59581 16.812 -39.9266 28.6096 40.4701 32.0523 5.71462 -41.752 -7.08972 23.5991 0.217613 3.42593e-007 -1.05078e-006 -6.71799e-007 3.18055e-015 3.18055e-015 -3.18055e-015 -3.03617e-008 -4.88716e-007 -3.76588e-007 3.42593e-007 -1.05078e-006 -6.71799e-007 -0.0145944 -8.7691e-005 -4.65547e-007 -3.18055e-015 0 3.18055e-015 3.42593e-007 -1.05078e-006 -6.71799e-007 -0.01873 -0.00117604 5.88533e-005 5.96354e-015 3.18055e-015 -7.95139e-016 3.42593e-007 -1.05078e-006 -6.71799e-007 -0.0122362 -0.00323834 0.00067611 -1.98785e-015 -3.18055e-015 -2.38542e-015 3.42593e-007 -1.05078e-006 -6.71799e-007 3.18055e-015 3.18055e-015 -3.18055e-015 -3.03617e-008 -4.88716e-007 -3.76588e-007 -0.60742 0.433275 -8.61063 77.1126 0.634025 -30.2949 -13.5003 -14.9033 136.941 9.89457 -10.5516 9.58453 1.11719e-007 -3.24477e-007 -2.5324e-007 -1.11719e-007 3.24477e-007 2.5324e-007 1.11719e-007 -3.24477e-007 -2.5324e-007 1.11719e-007 -3.24477e-007 -2.5324e-007 0.0150506 -9.34745e-005 1.5328e-006 3.05662e-006 -3.47799e-007 6.86083e-007 1.11719e-007 -3.24477e-007 -2.5324e-007 0.0190065 -0.00119353 -6.01192e-005 1.1172e-007 -3.24519e-007 -2.53187e-007 1.11719e-007 -3.24477e-007 -2.5324e-007 0.0122819 -0.0032539 -0.000677987 1.11716e-007 -3.24504e-007 -2.53208e-007 1.11719e-007 -3.24477e-007 -2.5324e-007 -1.11719e-007 3.24477e-007 2.5324e-007 1.11719e-007 -3.24477e-007 -2.5324e-007 -12.0051 -28.0815 -16.4093 48.1135 87.0199 -50.0651 5.84668 12.1436 10.1866 -2.77235e-006 4.57469e-006 -9.57309e-007 16.0391 1.68341 1.04474 -1.4566 8.92848 1.24928 -0.647978 29.1081 10.8352 4.70329e-007 -1.09382e-007 -2.27049e-007 
-43.8615 2.22661 6.30789 -180 -89.9981 -180 -0.671198 8.11503 0.155346 -1.38609 16.2276 0.414184 -1.38609 16.2276 0.414185 -6.21697e-006 17.9984 1.49426e-006 26.1783 -6.50335 3.18493 15.5839 3.59581 16.812 -39.9266 28.6096 40.4701 32.0523 5.71463 -41.752 -7.08972 23.5991 0.217614 1.98785e-015 0 -1.59028e-015 3.57812e-015 0 -2.38542e-015 2.78299e-015 -3.18055e-015 -1.59028e-015 1.98785e-015 0 -1.59028e-015 -0.0145946 -8.9077e-005 1.3371e-006 3.97569e-016 6.36111e-015 -1.59028e-015 1.98785e-015 0 -1.59028e-015 -0.0187396 -0.00117342 5.88078e-005 -3.57812e-015 9.54166e-015 -1.59028e-015 1.98785e-015 0 -1.59028e-015 -0.0122713 -0.00324518 0.000675725 3.97569e-015 6.36111e-015 3.18055e-015 1.98785e-015 0 -1.59028e-015 3.57812e-015 0 -2.38542e-015 2.78299e-015 -3.18055e-015 -1.59028e-015 -0.60742 0.433275 -8.61063 77.1126 0.63403 -30.2949 -13.5893 -14.8224 136.595 9.85565 -10.3255 9.51175 -2.26452e-007 6.48326e-007 5.06011e-007 -1.13226e-007 3.24163e-007 2.53006e-007 -2.26452e-007 6.48326e-007 5.06011e-007 -2.26452e-007 6.48326e-007 5.06011e-007 0.0149924 -9.2038e-005 4.03455e-006 -2.26456e-007 6.48392e-007 5.05926e-007 -2.26452e-007 6.48326e-007 5.06011e-007 0.0190095 -0.00119207 -6.3992e-005 -2.26453e-007 6.4841e-007 5.05906e-007 -2.26452e-007 6.48326e-007 5.06011e-007 0.0122522 -0.00324116 -0.000675388 -2.26445e-007 6.4838e-007 5.05948e-007 -2.26452e-007 6.48326e-007 5.06011e-007 -1.13226e-007 3.24163e-007 2.53006e-007 -2.26452e-007 6.48326e-007 5.06011e-007 -11.9594 -28.0024 -16.3115 44.1644 86.8104 -46.0981 5.84305 12.1466 10.1942 7.95139e-015 3.18055e-015 -3.18055e-015 16.0388 1.68299 1.04477 -1.45661 8.92902 1.24942 -0.647599 29.108 10.8351 1.03838e-006 -4.38501e-007 -2.67335e-007 
-43.861 2.22642 6.30779 -180 -89.9981 -180 -0.671197 8.11503 0.155346 -1.38609 16.2276 0.414184 -1.38609 16.2276 0.414185 -1.59038e-005 17.9984 9.24582e-006 26.1414 -5.8048 2.83982 15.5839 3.59581 16.812 -39.9266 28.6096 40.4701 32.0523 5.71463 -41.752 -7.08972 23.5991 0.217612 -3.97569e-016 6.36111e-015 7.95139e-016 5.1684e-015 9.54166e-015 -0 0 9.54166e-015 -0 -3.97569e-016 6.36111e-015 7.95139e-016 -0.0145995 -8.949e-005 2.93821e-007 -3.18055e-015 3.18055e-015 2.38542e-015 -3.97569e-016 6.36111e-015 7.95139e-016 -0.0187508 -0.0011766 5.90233e-005 -1.19271e-015 -3.18055e-015 3.97569e-015 -3.97569e-016 6.36111e-015 7.95139e-016 -0.0122713 -0.0032487 0.000676931 -2.38542e-015 -9.54166e-015 -0 -3.97569e-016 6.36111e-015 7.95139e-016 5.1684e-015 9.54166e-015 -0 0 9.54166e-015 -0 -0.60742 0.433275 -8.61063 77.1126 0.634025 -30.2949 -13.6777 -14.7411 136.248 9.81704 -10.0993 9.43914 3.53113e-031 3.18055e-015 -6.36111e-015 2.29462e-007 -6.47696e-007 -5.05527e-007 -3.18055e-015 -3.18055e-015 -0 3.53113e-031 3.18055e-015 -6.36111e-015 0.0149989 -9.42408e-005 3.92686e-006 2.92924e-006 -4.60202e-008 1.05516e-006 3.53113e-031 3.18055e-015 -6.36111e-015 0.019022 -0.00118874 -6.54684e-005 -1.11319e-014 -9.54166e-015 -1.27222e-014 3.53113e-031 3.18055e-015 -6.36111e-015 0.012311 -0.00325938 -0.000680262 -1.59028e-015 6.36111e-015 3.18055e-015 3.53113e-031 3.18055e-015 -6.36111e-015 2.29462e-007 -6.47696e-007 -5.05527e-007 -3.18055e-015 -3.18055e-015 -0 -11.9139 -27.9229 -16.214 40.7078 86.5874 -42.6233 5.83945 12.1497 10.2018 -1.81211e-006 -7.71709e-008 -4.98703e-007 16.0384 1.68279 1.04479 -1.4566 8.92919 1.24955 -0.647209 29.108 10.835 -8.68283e-007 1.03426e-007 5.36128e-007 
-43.8606 2.22623 6.30769 -180 -89.9981 -180 -0.671199 8.11503 0.155346 -1.38609 16.2276 0.414184 -1.38609 16.2276 0.414185 -1.76666e-005 17.9984 9.96203e-006 26.1087 -5.10727 2.49617 15.5839 3.59581 16.812 -39.9266 28.6096 40.4701 32.0523 5.71462 -41.752 -7.08972 23.5991 0.217612 -3.03613e-008 -4.88715e-007 -3.76587e-007 5.16753e-007 -9.39323e-007 -1.49727e-006 -3.03612e-008 -4.88716e-007 -3.76587e-007 -3.03613e-008 -4.88715e-007 -3.76587e-007 -0.0145992 -9.10291e-005 -7.55023e-007 -3.97569e-016 0 7.95139e-016 -3.03613e-008 -4.88715e-007 -3.76587e-007 -0.0187596 -0.00117695 5.60572e-005 -9.93923e-015 0 1.59028e-015 -3.03613e-008 -4.88715e-007 -3.76587e-007 -0.0122595 -0.0032486 0.000674621 -7.95139e-016 1.59028e-014 -3.18055e-015 -3.03613e-008 -4.88715e-007 -3.76587e-007 5.16753e-007 -9.39323e-007 -1.49727e-006 -3.03612e-008 -4.88716e-007 -3.76587e-007 -0.60742 0.433275 -8.61063 77.1126 0.634034 -30.2949 -13.7656 -14.6592 135.902 9.77872 -9.87294 9.3667 1.59028e-015 6.36111e-015 -9.54166e-015 4.77083e-015 0 -3.18055e-015 -1.16234e-007 3.23531e-007 2.52513e-007 1.59028e-015 6.36111e-015 -9.54166e-015 0.0150475 -9.09123e-005 4.45054e-006 -1.16236e-007 3.23565e-007 2.52471e-007 1.59028e-015 6.36111e-015 -9.54166e-015 0.0189619 -0.00119094 -5.33762e-005 -1.16235e-007 3.23573e-007 2.52461e-007 1.59028e-015 6.36111e-015 -9.54166e-015 0.0122795 -0.00324948 -0.000685815 -1.16231e-007 3.23558e-007 2.52482e-007 1.59028e-015 6.36111e-015 -9.54166e-015 4.77083e-015 0 -3.18055e-015 -1.16234e-007 3.23531e-007 2.52513e-007 -11.8686 -27.8431 -16.1167 37.6826 86.3532 -39.58 5.83585 12.1526 10.2093 -1.53954e-006 -3.0117e-006 2.14536e-006 16.0381 1.68224 1.04482 -1.45661 8.92998 1.24968 -0.646829 29.1077 10.8349 4.43816e-007 2.91219e-006 -1.70917e-006 
